<?xml version="1.0" encoding="utf-8"?>
<!-- Generator: Adobe Illustrator 19.1.0, SVG Export Plug-In . SVG Version: 6.00 Build 0)  -->
<!DOCTYPE svg PUBLIC "-//W3C//DTD SVG 1.1//EN" "http://www.w3.org/Graphics/SVG/1.1/DTD/svg11.dtd">
<svg version="1.1" id="Ebene_1" xmlns="http://www.w3.org/2000/svg" xmlns:xlink="http://www.w3.org/1999/xlink" x="0px" y="0px"
	 viewBox="0 0 669.7 451.4" enable-background="new 0 0 669.7 451.4" xml:space="preserve">
<path d="M643.7,399.4c0.7,4.4-3.7,8-7.9,6.4c-18.4-6.6-37.7-10.8-56.9-14.5c-22.6-4.3-45.6-7.4-68.6-9.4
	c-42.1-3.6-84.7-4.7-126.9-2.4c-39.1,2.1-78.1,5.8-116.9,11.6c-47,7-93.4,16.8-139.5,28.2c-22.7,5.6-45.1,12.2-67.5,18.8
	c-10.5,3-20.8,6.4-31.2,9.7c-2.9,0.9-5.9,1.8-8.8,2.8c-1.2,0.4-2.9,1.2-4.2,0.6c-6-3.1,7.3-6.8,8.3-7.2c9.9-3.5,19.8-7.2,29.7-10.5
	c22.3-7.4,44.7-14.5,67.3-21c83.8-24.1,170.2-39.6,257.2-44.9c42.4-2.6,85-2.3,127.4,1.2c44,3.6,89.4,10,131.2,24.9
	C639.5,394.7,643,395.7,643.7,399.4z M309.1,115.7c15.5,7.4,35,18.9,38.4,37.5c3.5,18.8-13.6,38.1-30.3,42.5
	c-15.7,4.2-35.7-12.2-33.5-26c1-6.5,22.4-30.1,1.3-30.7c-13.7-0.4-24.1,6.6-30.1,16.6c-3.6,2.7-7.1,6.2-9.6,8.6
	c-11.1,10.5-25.2,18-39.8,23.2c-0.8,1.2-1.5,2.2-1.9,2.7c-11.7,14.3-19.8,32.7-27.4,49.9c2.5-0.7,5.1-1.4,7.5-2.2
	c18.3-6.1,50.3-21.4,70.4-40.1c1.7,2.9,3.8,5.5,6.4,7.9c12.7,11.6,31.3,16.6,48.7,14.9c9-0.8,17.8-3.6,26.4-5.9
	c13.5-3.6,26.5-10.2,37.6-19.2c28,18.1,75.9,17.5,104.4,6.6c31-11.8,58.9-28.3,66.5-63.5c3.8-17.7-5.4-35.2-19.1-45.7
	c-14.7-11.2-55.3-17.7-51.5-41.2c2.8-17.1,27.1-30,43.8-26c16.5,4,2.5,10.6-2.3,16.7c-12.5,15.8,13.7,28,26.2,24.7
	c20.3-5.4,36.9-33.8,20.3-52C548.9,1.6,526.1-1.1,509.4,0.3C462,4.2,379.1,63.3,451.3,102.2c15.2,8.2,34,20.8,36.7,39.4
	c2.7,18.5-17.4,33.2-32.9,36.7c-21.1,4.7-43.3,4.2-60.5-8.2c3.9-7,6.7-14.6,8.2-22.6c3.1-17.5-7-34.8-21.2-44.7
	c-15.2-10.5-55.8-14.9-53.2-38.6c1.9-17.2,25.4-31.3,42.2-28.1c16.6,3.1,3,10.4-1.5,16.7c-11.6,16.3,14.8,27.4,27.2,23.4
	c20-6.5,34.9-35.6,17.6-53C401,10.4,378.3,8.9,361.7,11.1C314.6,17.4,235.5,80.5,309.1,115.7z M123.1,242.5
	c5.5-14.9,11.3-29.2,18.1-43.6c-7.7-0.9-14.5-3.1-18.7-7.5c-13.3-14-9.6-42.4-3.5-58.6c13.3-35,52.7-72.2,87.8-83.5
	c10.5-3.4,31.6-3.7,31.5,11.6c0,4.2-2.2,8.5-4.9,12c-4.2,5.4-11.7,8.2-8.7,15.1c1.6,3.6,7.2,5.9,10.6,6.8c16.3,4.6,38.2-5.7,41.6-24
	c2.1-11.4-4.9-26.4-13.5-33.4c-9.5-7.8-25.5-14.1-37.8-14.5c-31.2-1.1-58.7,8.3-85,23.6c-30.7,17.7-58.2,44.4-72,77.3
	c-11.7,27.8-12,55.4,1.2,82.7C79.2,225.8,101.6,238.5,123.1,242.5z M46,399.4c27.3-6.8,46.1-28,64.2-48.1
	c1.6,12.4,6.5,22.4,17.6,25.6c14.3,4.1,28.2-5.2,38-13.1c10.6-8.7,19.6-22,28.1-33.9c0,0,1.1,9.9,4.2,16.3c2.6,5.5,7,10.2,12.3,13.4
	c5.2,3.1,11.8,3.3,17.7,2.3c12.5-2.1,25.7-11.3,34.4-20.1c4.1,2.6,3.7,8.6,9.7,11.5c5.9,2.9,12.9,1.7,19.1,0.1
	c8.9-2.2,18.3-7.7,26.1-14.2c1.6,1.9,3.4,3.4,5.2,4.4c20.3,11.1,57.6-2,64.4-26.1c2.5,7.9,7,15.2,12,18.1
	c23.6,13.8,72.5-5.4,66.1-38.6c-3.3-17.3-17.2-28.9-26.7-43c-3.7-5.4-5.5-13.9,0.8-18.1c5.9-3.9,11.4-3.5,15.3-2.1
	c3.9,1.4,7.2,5.1,5.8,10.5c-1.3,5,11.2,8.5,15.9,5c9.9-7.5,1.1-23.2-6.3-28.2c-12-8.1-29.1-7.8-42.3-1.6
	c-15.7,7.3-23,24.9-15.6,40.8c5,10.6,14.5,18.5,19,29.5c8.4,20.1-22.9,30.1-24.3,10.5c-0.4-5.4-1.7-8.3-4.4-9
	c-9.4-2.3-14.5,1.2-16.5,7.1c-5.1-14.6-17.6-25.1-26.5-37.6c-3.8-5.3-5.9-13.8,0.3-18.1c5.7-4.1,11.2-3.8,15.2-2.5
	c3.9,1.3,7.3,4.9,6.1,10.3c-1.2,5,11.4,8.2,15.9,4.5c9.7-7.8,0.4-23.2-7.1-28c-12.2-7.8-29.5-7-42.2-0.4
	c-14.4,7.6-22.8,25.5-14.3,41.3c5.6,10.4,14.9,18.1,19.8,28.9c9,19.9-21.9,30.7-23.9,11.2c-0.5-5.4-1.9-8.3-4.6-8.9
	c-14.3-3-18.3,6.8-16.7,18.1c-2,2.6-4.3,4.7-6.9,4.9c-11.6,1.3-8.9-11.8-6.1-18.6c3.3-7.8,15.2-18,0.2-18.8
	c-25.8-1.4-32.2,36.8-54.5,42.4c-8.6,2.2-16.8-4.9-17-15.6c-0.2-18.5,15.1-39.9,30.8-50c11.8-7.6,23.8-8.7,29-4.3
	c3.5,3,6.5,5.9,4.7,10.1c-0.9,2.2,1.6,4.5,5.6,4.4c13-0.3,22-11.5,19.9-24.7c-2.7-17-27.1-18.8-40.1-16.8c-28.5,4.4-55.7,27-72,50.4
	c-10.1,14.5-18.8,30.3-29.8,44.3c-4.3,5.5-8.4,8.8-12,10.1c-7.4,0.6-13.4-8.8-12.8-20.2c2.2-15.2,4.2-31.1,8.3-45.5
	c8.2-28.6,21.7-61.5,40.9-84.7c1.8-2.2,4.5-7,1-8.9c-11.4-6.2-26.2-7.6-34.5,4.6c-24.1,30.9-35.9,73.6-45.4,110.9
	c-2,7.8-5.2,20.9-6.9,34.5c-14.4,14.2-28.4,27.5-47.8,34.5c-13,4.7-28.5,1.7-28-15.1c0.6-17.3,9.2-34.3,20.9-46.5
	c7.5-7.8,35.2-14,23.1,5.5c-3,4.8,8.4,11,18,4.9c6.7-4.3,8.1-8.5,9.8-13c10.7-27.3-29-34.9-46.9-28.4C26,280.3,3.5,311.4,0.3,346.7
	C-2.3,374,13.5,407.4,46,399.4z M664.6,245.2c-5,3.2-17.3-1.2-15.6-6.1c1.8-5.2-1.4-9.2-5.1-10.9c-3.9-1.7-9.4-2.4-15.6,1
	c-6.6,3.7-5.4,12.3-2,18c8.6,14.7,21.8,27.3,23.9,44.8c4.2,33.8-46.6,49.1-69.2,33.9c-4-2.7-7.5-8.3-9.7-14.7
	c-15,10.6-30.2,18.5-48.8,22.2c-17.2,3.4-43.4,1.2-50.7-18.1c-8.4-22.2-0.1-52.3,14.4-69.8c18.7-22.6,70.7-52.8,96.9-24.6
	c21.3,23-12.7,48.2-31.1,53.6c-14.9,4.3-33.1-1.5-42.4-0.1c-7.6,1.1-4.9,23.6,5.5,27.6c18.1,7,37.4-1.7,54.1-10.5
	c1.6-7.8,7.1-12.9,18.1-9.4c2.7,0.8,3.8,3.9,3.8,9.3c0.1,19.6,32.2,11.9,25.2-8.8c-3.9-11.3-12.9-19.8-17.1-30.7
	c-6.4-16.5,2.2-33.5,18.5-39.7c13.7-5.2,30.9-4.4,42.5,4.5C667.2,222.1,675.1,238.4,664.6,245.2z M530.2,258.6
	c7.6-0.4,16.8-2.4,23.4-6.1c5.4-3,13.8-11.8,8.2-18.3c-2.2-2.5-9.9-1.5-17.8,1.5c-10.2,3.9-21.9,13-26.8,22.6
	C515.9,260.9,529.3,258.6,530.2,258.6z"/>
</svg>
